<svg width="192" height="30" viewBox="0 0 192 30" fill="none" xmlns="http://www.w3.org/2000/svg">
<path d="M46.7695 23.2443H43.2137V8.8006C43.2137 7.79519 43.4099 6.94917 43.8023 6.26254C44.2028 5.56774 44.7627 5.0446 45.482 4.69311C46.2095 4.33345 47.0719 4.15362 48.0691 4.15362C48.3961 4.15362 48.7108 4.17814 49.0133 4.22719C49.3157 4.26806 49.61 4.32119 49.8961 4.38658L49.8593 7.04726C49.704 7.00639 49.5405 6.97778 49.3688 6.96143C49.1972 6.94508 48.9969 6.93691 48.768 6.93691C48.343 6.93691 47.9792 7.01047 47.6768 7.15761C47.3825 7.29657 47.1577 7.50501 47.0024 7.78293C46.8471 8.06085 46.7695 8.40007 46.7695 8.8006V23.2443ZM49.4179 9.97768V12.479H41.2397V9.97768H49.4179ZM50.7053 16.7458V16.4884C50.7053 15.5156 50.8443 14.6206 51.1222 13.8032C51.4001 12.9776 51.8047 12.2623 52.336 11.6575C52.8674 11.0526 53.5213 10.5826 54.2978 10.2474C55.0744 9.90411 55.9653 9.73245 56.9708 9.73245C57.9762 9.73245 58.8712 9.90411 59.656 10.2474C60.4407 10.5826 61.0987 11.0526 61.63 11.6575C62.1695 12.2623 62.5782 12.9776 62.8561 13.8032C63.134 14.6206 63.273 15.5156 63.273 16.4884V16.7458C63.273 17.7104 63.134 18.6055 62.8561 19.431C62.5782 20.2485 62.1695 20.9637 61.63 21.5767C61.0987 22.1816 60.4448 22.6516 59.6682 22.9868C58.8917 23.3219 58.0007 23.4895 56.9953 23.4895C55.9899 23.4895 55.0948 23.3219 54.3101 22.9868C53.5335 22.6516 52.8755 22.1816 52.336 21.5767C51.8047 20.9637 51.4001 20.2485 51.1222 19.431C50.8443 18.6055 50.7053 17.7104 50.7053 16.7458ZM54.2365 16.4884V16.7458C54.2365 17.3017 54.2856 17.8207 54.3836 18.303C54.4817 18.7853 54.637 19.2103 54.8496 19.5782C55.0703 19.9378 55.3564 20.2198 55.7079 20.4242C56.0593 20.6285 56.4885 20.7307 56.9953 20.7307C57.4857 20.7307 57.9067 20.6285 58.2582 20.4242C58.6097 20.2198 58.8917 19.9378 59.1042 19.5782C59.3167 19.2103 59.472 18.7853 59.5701 18.303C59.6764 17.8207 59.7295 17.3017 59.7295 16.7458V16.4884C59.7295 15.9489 59.6764 15.4421 59.5701 14.968C59.472 14.4857 59.3126 14.0606 59.0919 13.6928C58.8794 13.3168 58.5974 13.0225 58.2459 12.81C57.8944 12.5975 57.4694 12.4912 56.9708 12.4912C56.4721 12.4912 56.0471 12.5975 55.6956 12.81C55.3523 13.0225 55.0703 13.3168 54.8496 13.6928C54.637 14.0606 54.4817 14.4857 54.3836 14.968C54.2856 15.4421 54.2365 15.9489 54.2365 16.4884ZM64.8792 16.7458V16.4884C64.8792 15.5156 65.0182 14.6206 65.2961 13.8032C65.574 12.9776 65.9786 12.2623 66.5099 11.6575C67.0413 11.0526 67.6952 10.5826 68.4717 10.2474C69.2483 9.90411 70.1393 9.73245 71.1447 9.73245C72.1501 9.73245 73.0451 9.90411 73.8299 10.2474C74.6146 10.5826 75.2726 11.0526 75.8039 11.6575C76.3434 12.2623 76.7521 12.9776 77.03 13.8032C77.3079 14.6206 77.4469 15.5156 77.4469 16.4884V16.7458C77.4469 17.7104 77.3079 18.6055 77.03 19.431C76.7521 20.2485 76.3434 20.9637 75.8039 21.5767C75.2726 22.1816 74.6187 22.6516 73.8421 22.9868C73.0656 23.3219 72.1746 23.4895 71.1692 23.4895C70.1638 23.4895 69.2687 23.3219 68.484 22.9868C67.7075 22.6516 67.0494 22.1816 66.5099 21.5767C65.9786 20.9637 65.574 20.2485 65.2961 19.431C65.0182 18.6055 64.8792 17.7104 64.8792 16.7458ZM68.4104 16.4884V16.7458C68.4104 17.3017 68.4595 17.8207 68.5576 18.303C68.6557 18.7853 68.811 19.2103 69.0235 19.5782C69.2442 19.9378 69.5303 20.2198 69.8818 20.4242C70.2333 20.6285 70.6624 20.7307 71.1692 20.7307C71.6596 20.7307 72.0806 20.6285 72.4321 20.4242C72.7836 20.2198 73.0656 19.9378 73.2781 19.5782C73.4906 19.2103 73.6459 18.7853 73.744 18.303C73.8503 17.8207 73.9034 17.3017 73.9034 16.7458V16.4884C73.9034 15.9489 73.8503 15.4421 73.744 14.968C73.6459 14.4857 73.4866 14.0606 73.2659 13.6928C73.0533 13.3168 72.7713 13.0225 72.4198 12.81C72.0683 12.5975 71.6433 12.4912 71.1447 12.4912C70.646 12.4912 70.221 12.5975 69.8695 12.81C69.5262 13.0225 69.2442 13.3168 69.0235 13.6928C68.811 14.0606 68.6557 14.4857 68.5576 14.968C68.4595 15.4421 68.4104 15.9489 68.4104 16.4884ZM87.452 20.3506V4.41111H91.0078V23.2443H87.8076L87.452 20.3506ZM79.0654 16.7704V16.5129C79.0654 15.4993 79.1798 14.5797 79.4087 13.7541C79.6376 12.9204 79.9727 12.2051 80.4141 11.6084C80.8555 11.0117 81.3991 10.5499 82.0448 10.2229C82.6906 9.89594 83.4263 9.73245 84.2519 9.73245C85.0284 9.73245 85.7069 9.89594 86.2872 10.2229C86.8757 10.5499 87.3744 11.0158 87.7831 11.6207C88.2 12.2174 88.5351 12.9244 88.7885 13.7419C89.0419 14.5511 89.2258 15.438 89.3402 16.4025V16.9665C89.2258 17.8902 89.0419 18.7485 88.7885 19.5414C88.5351 20.3343 88.2 21.0291 87.7831 21.6258C87.3744 22.2143 86.8757 22.6721 86.2872 22.999C85.6987 23.326 85.0121 23.4895 84.2273 23.4895C83.4018 23.4895 82.6661 23.3219 82.0203 22.9868C81.3827 22.6516 80.8433 22.1816 80.4019 21.5767C79.9686 20.9719 79.6376 20.2607 79.4087 19.4433C79.1798 18.6259 79.0654 17.7349 79.0654 16.7704ZM82.5966 16.5129V16.7704C82.5966 17.318 82.6375 17.8289 82.7192 18.303C82.8091 18.7771 82.9522 19.1981 83.1484 19.5659C83.3527 19.9256 83.6143 20.2076 83.9331 20.4119C84.26 20.6081 84.6565 20.7062 85.1224 20.7062C85.7273 20.7062 86.2259 20.5713 86.6183 20.3016C87.0106 20.0237 87.309 19.6436 87.5133 19.1613C87.7259 18.679 87.8485 18.1232 87.8812 17.4938V15.8876C87.8566 15.3726 87.7831 14.9108 87.6605 14.502C87.546 14.0852 87.3744 13.7296 87.1455 13.4353C86.9248 13.1411 86.6469 12.9122 86.3117 12.7487C85.9848 12.5852 85.5965 12.5035 85.1469 12.5035C84.6892 12.5035 84.2968 12.6097 83.9699 12.8223C83.6429 13.0266 83.3772 13.3086 83.1729 13.6683C82.9767 14.0279 82.8296 14.453 82.7315 14.9435C82.6416 15.4257 82.5966 15.9489 82.5966 16.5129ZM106.126 23.4895C105.096 23.4895 104.172 23.326 103.355 22.999C102.537 22.6639 101.843 22.2021 101.27 21.6135C100.706 21.025 100.273 20.3425 99.9707 19.5659C99.6682 18.7812 99.517 17.9474 99.517 17.0646V16.5742C99.517 15.5688 99.6601 14.6492 99.9462 13.8154C100.232 12.9817 100.641 12.2583 101.172 11.6452C101.712 11.0321 102.366 10.5621 103.134 10.2352C103.902 9.90002 104.769 9.73245 105.733 9.73245C106.673 9.73245 107.507 9.88776 108.235 10.1984C108.962 10.509 109.571 10.9504 110.062 11.5226C110.56 12.0948 110.936 12.7814 111.19 13.5825C111.443 14.3753 111.57 15.2582 111.57 16.2309V17.7022H101.025V15.3481H108.1V15.0783C108.1 14.5879 108.01 14.1506 107.83 13.7664C107.658 13.374 107.397 13.0634 107.045 12.8345C106.694 12.6057 106.244 12.4912 105.697 12.4912C105.231 12.4912 104.83 12.5934 104.495 12.7977C104.16 13.0021 103.886 13.2882 103.674 13.656C103.469 14.0239 103.314 14.4571 103.208 14.9557C103.11 15.4462 103.06 15.9857 103.06 16.5742V17.0646C103.06 17.596 103.134 18.0864 103.281 18.536C103.437 18.9855 103.653 19.3738 103.931 19.7008C104.217 20.0277 104.56 20.2811 104.961 20.461C105.37 20.6408 105.832 20.7307 106.346 20.7307C106.984 20.7307 107.577 20.6081 108.124 20.3629C108.68 20.1095 109.158 19.7294 109.559 19.2226L111.275 21.0863C110.998 21.4868 110.617 21.871 110.135 22.2388C109.661 22.6067 109.089 22.9091 108.419 23.1462C107.748 23.375 106.984 23.4895 106.126 23.4895ZM116.425 9.97768L118.62 14.0116L120.876 9.97768H124.64L120.888 16.4638L124.812 23.2443H121.035L118.644 18.9774L116.254 23.2443H112.477L116.401 16.4638L112.649 9.97768H116.425ZM129.888 12.528V28.3449H126.357V9.97768H129.63L129.888 12.528ZM138.287 16.4638V16.7213C138.287 17.6859 138.172 18.5809 137.944 19.4065C137.723 20.2321 137.396 20.9514 136.963 21.5645C136.529 22.1694 135.99 22.6435 135.344 22.9868C134.707 23.3219 133.971 23.4895 133.137 23.4895C132.328 23.4895 131.625 23.326 131.028 22.999C130.432 22.6721 129.929 22.2143 129.52 21.6258C129.12 21.0291 128.797 20.3384 128.551 19.5537C128.306 18.7689 128.118 17.927 127.987 17.0278V16.3535C128.118 15.3889 128.306 14.5061 128.551 13.7051C128.797 12.8958 129.12 12.1969 129.52 11.6084C129.929 11.0117 130.427 10.5499 131.016 10.2229C131.613 9.89594 132.312 9.73245 133.113 9.73245C133.955 9.73245 134.694 9.89185 135.332 10.2106C135.978 10.5294 136.517 10.9872 136.95 11.5839C137.392 12.1806 137.723 12.8917 137.944 13.7173C138.172 14.5429 138.287 15.4584 138.287 16.4638ZM134.743 16.7213V16.4638C134.743 15.8998 134.694 15.3808 134.596 14.9067C134.506 14.4244 134.359 14.0034 134.155 13.6438C133.959 13.2841 133.697 13.0062 133.37 12.81C133.051 12.6057 132.663 12.5035 132.205 12.5035C131.723 12.5035 131.31 12.5811 130.967 12.7364C130.632 12.8917 130.358 13.1165 130.145 13.4108C129.933 13.7051 129.773 14.0566 129.667 14.4653C129.561 14.874 129.496 15.3358 129.471 15.8508V17.5551C129.512 18.16 129.626 18.7035 129.814 19.1858C130.002 19.6599 130.293 20.0359 130.685 20.3138C131.077 20.5918 131.592 20.7307 132.23 20.7307C132.696 20.7307 133.088 20.6285 133.407 20.4242C133.726 20.2117 133.983 19.9215 134.179 19.5537C134.384 19.1858 134.527 18.7608 134.608 18.2785C134.698 17.7962 134.743 17.2772 134.743 16.7213ZM144.209 4.41111V23.2443H140.665V4.41111H144.209ZM146.563 16.7458V16.4884C146.563 15.5156 146.702 14.6206 146.98 13.8032C147.258 12.9776 147.663 12.2623 148.194 11.6575C148.725 11.0526 149.379 10.5826 150.156 10.2474C150.932 9.90411 151.823 9.73245 152.829 9.73245C153.834 9.73245 154.729 9.90411 155.514 10.2474C156.298 10.5826 156.957 11.0526 157.488 11.6575C158.027 12.2623 158.436 12.9776 158.714 13.8032C158.992 14.6206 159.131 15.5156 159.131 16.4884V16.7458C159.131 17.7104 158.992 18.6055 158.714 19.431C158.436 20.2485 158.027 20.9637 157.488 21.5767C156.957 22.1816 156.303 22.6516 155.526 22.9868C154.749 23.3219 153.859 23.4895 152.853 23.4895C151.848 23.4895 150.953 23.3219 150.168 22.9868C149.391 22.6516 148.733 22.1816 148.194 21.5767C147.663 20.9637 147.258 20.2485 146.98 19.431C146.702 18.6055 146.563 17.7104 146.563 16.7458ZM150.094 16.4884V16.7458C150.094 17.3017 150.143 17.8207 150.241 18.303C150.34 18.7853 150.495 19.2103 150.707 19.5782C150.928 19.9378 151.214 20.2198 151.566 20.4242C151.917 20.6285 152.346 20.7307 152.853 20.7307C153.344 20.7307 153.765 20.6285 154.116 20.4242C154.467 20.2198 154.749 19.9378 154.962 19.5782C155.175 19.2103 155.33 18.7853 155.428 18.303C155.534 17.8207 155.587 17.3017 155.587 16.7458V16.4884C155.587 15.9489 155.534 15.4421 155.428 14.968C155.33 14.4857 155.17 14.0606 154.95 13.6928C154.737 13.3168 154.455 13.0225 154.104 12.81C153.752 12.5975 153.327 12.4912 152.829 12.4912C152.33 12.4912 151.905 12.5975 151.553 12.81C151.21 13.0225 150.928 13.3168 150.707 13.6928C150.495 14.0606 150.34 14.4857 150.241 14.968C150.143 15.4421 150.094 15.9489 150.094 16.4884ZM164.832 12.8713V23.2443H161.301V9.97768H164.624L164.832 12.8713ZM168.829 9.89185L168.768 13.1656C168.596 13.1411 168.388 13.1206 168.143 13.1043C167.906 13.0798 167.689 13.0675 167.493 13.0675C166.994 13.0675 166.561 13.1329 166.193 13.2637C165.834 13.3863 165.531 13.5702 165.286 13.8154C165.049 14.0606 164.869 14.359 164.746 14.7105C164.632 15.062 164.567 15.4625 164.55 15.9121L163.839 15.6914C163.839 14.8331 163.925 14.0443 164.097 13.325C164.268 12.5975 164.518 11.964 164.845 11.4245C165.18 10.885 165.588 10.4681 166.071 10.1739C166.553 9.87959 167.105 9.73245 167.726 9.73245C167.922 9.73245 168.122 9.7488 168.327 9.7815C168.531 9.80602 168.699 9.8428 168.829 9.89185ZM176.358 23.4895C175.328 23.4895 174.404 23.326 173.587 22.999C172.769 22.6639 172.075 22.2021 171.502 21.6135C170.938 21.025 170.505 20.3425 170.203 19.5659C169.9 18.7812 169.749 17.9474 169.749 17.0646V16.5742C169.749 15.5688 169.892 14.6492 170.178 13.8154C170.464 12.9817 170.873 12.2583 171.404 11.6452C171.944 11.0321 172.598 10.5621 173.366 10.2352C174.134 9.90002 175.001 9.73245 175.965 9.73245C176.905 9.73245 177.739 9.88776 178.467 10.1984C179.194 10.509 179.803 10.9504 180.294 11.5226C180.792 12.0948 181.168 12.7814 181.422 13.5825C181.675 14.3753 181.802 15.2582 181.802 16.2309V17.7022H171.257V15.3481H178.332V15.0783C178.332 14.5879 178.242 14.1506 178.062 13.7664C177.89 13.374 177.629 13.0634 177.277 12.8345C176.926 12.6057 176.476 12.4912 175.929 12.4912C175.463 12.4912 175.062 12.5934 174.727 12.7977C174.392 13.0021 174.118 13.2882 173.906 13.656C173.701 14.0239 173.546 14.4571 173.44 14.9557C173.342 15.4462 173.292 15.9857 173.292 16.5742V17.0646C173.292 17.596 173.366 18.0864 173.513 18.536C173.668 18.9855 173.885 19.3738 174.163 19.7008C174.449 20.0277 174.792 20.2811 175.193 20.461C175.602 20.6408 176.064 20.7307 176.578 20.7307C177.216 20.7307 177.809 20.6081 178.356 20.3629C178.912 20.1095 179.39 19.7294 179.791 19.2226L181.507 21.0863C181.23 21.4868 180.849 21.871 180.367 22.2388C179.893 22.6067 179.321 22.9091 178.651 23.1462C177.98 23.375 177.216 23.4895 176.358 23.4895ZM187.344 12.8713V23.2443H183.813V9.97768H187.135L187.344 12.8713ZM191.341 9.89185L191.28 13.1656C191.108 13.1411 190.9 13.1206 190.654 13.1043C190.417 13.0798 190.201 13.0675 190.004 13.0675C189.506 13.0675 189.073 13.1329 188.705 13.2637C188.345 13.3863 188.043 13.5702 187.797 13.8154C187.56 14.0606 187.381 14.359 187.258 14.7105C187.144 15.062 187.078 15.4625 187.062 15.9121L186.351 15.6914C186.351 14.8331 186.436 14.0443 186.608 13.325C186.78 12.5975 187.029 11.964 187.356 11.4245C187.691 10.885 188.1 10.4681 188.582 10.1739C189.064 9.87959 189.616 9.73245 190.237 9.73245C190.434 9.73245 190.634 9.7488 190.838 9.7815C191.043 9.80602 191.21 9.8428 191.341 9.89185Z" fill="white" fill-opacity="0.3"/>
<path d="M15.0635 0.550903L27.7096 7.85208V22.4544L15.0635 29.7556L2.41753 22.4544V7.85208L15.0635 0.550903Z" fill="white" fill-opacity="0.3"/>
</svg>
